<?xml version="1.0" standalone="no"?>
<!DOCTYPE svg PUBLIC "-//W3C//DTD SVG 20010904//EN"
 "http://www.w3.org/TR/2001/REC-SVG-20010904/DTD/svg10.dtd">
<svg version="1.0" xmlns="http://www.w3.org/2000/svg"
 width="1280.000000pt" height="1220.000000pt" viewBox="0 0 1280.000000 1220.000000"
 preserveAspectRatio="xMidYMid meet">
<metadata>
Created by potrace 1.15, written by Peter Selinger 2001-2017
</metadata>
<g transform="translate(0.000000,1220.000000) scale(0.100000,-0.100000)"
fill="#4caf50" stroke="none">
<path d="M12516 12176 c-72 -31 -115 -64 -420 -324 -1314 -1125 -2128 -1868
-2856 -2608 -1146 -1166 -2018 -2286 -2652 -3409 -222 -392 -360 -669 -578
-1160 -226 -510 -311 -729 -595 -1538 l-38 -109 -26 34 c-336 432 -790 845
-1316 1195 -299 199 -505 318 -900 519 -446 227 -818 392 -1590 704 -247 100
-594 240 -770 312 -363 148 -414 166 -505 177 -119 15 -201 -11 -243 -79 -51
-81 -17 -273 75 -426 105 -176 211 -272 418 -379 1181 -611 2360 -1529 3440
-2680 639 -682 1173 -1353 1687 -2124 102 -152 185 -267 187 -260 3 8 24 97
47 199 451 2022 1407 4114 2900 6345 890 1330 1899 2641 3713 4820 122 147
229 285 245 318 66 128 77 284 29 389 -47 103 -137 132 -252 84z"/>
</g>
</svg>
